<svg width="120" height="45" viewBox="0 0 120 45" fill="none" xmlns="http://www.w3.org/2000/svg">
<g clip-path="url(#clip0_2536_9928)">
<path d="M102.249 13.6206C102.249 12.5661 102.249 11.619 102.249 10.6035C104.993 10.6035 107.639 10.6035 110.353 10.6035C110.353 19.6841 110.353 28.7549 110.353 37.8257C109.709 38.0405 103.391 38.0795 102.288 37.8647C102.288 36.9469 102.288 36.0096 102.288 35.0136C102.132 35.0625 102.015 35.0527 101.985 35.1113C100.726 37.025 98.8022 37.855 96.6737 38.2358C82.4475 41.331 74.7144 21.5686 85.6208 12.9957C90.1611 9.22683 98.1969 8.48476 102.249 13.6206ZM95.6387 31.1373C101.722 31.2057 105.344 23.5995 100.589 19.3717C96.3124 14.9485 88.1106 18.4636 88.6184 24.6345C88.9113 28.7549 92.3385 31.2447 95.6387 31.1373Z" fill="white"/>
<path d="M43.5379 13.4743C43.5379 12.5369 43.5379 11.5996 43.5379 10.6036C46.2523 10.6036 48.8984 10.6036 51.603 10.6036C51.603 19.694 51.603 28.7647 51.603 37.8258C50.9488 38.0308 45.0805 38.0992 43.5573 37.8941C43.5573 36.9665 43.5573 36.0097 43.5573 35.0625C43.4987 35.043 43.4305 35.0235 43.3719 35.004C36.4687 42.9128 22.7892 36.615 21.9495 26.7045C19.8405 17.1163 29.3996 7.6256 38.6071 10.4181C40.5501 10.8575 42.249 11.7656 43.3524 13.5524C43.411 13.5231 43.4793 13.5036 43.5379 13.4743ZM36.8788 31.0398C45.7153 31.362 46.4281 18.2391 37.6892 17.4385C28.2962 16.2765 26.8902 31.0398 36.8788 31.0398Z" fill="white"/>
<path d="M79.8698 37.816C77.1261 37.816 74.441 37.816 71.6289 37.816C71.5117 33.2464 71.6289 28.6671 71.5801 24.0975C71.5703 21.6956 70.0569 19.7232 67.8112 19.1081C64.5988 18.2293 61.4157 20.5825 61.3864 23.9218C61.3474 28.5597 61.3864 33.1781 61.3767 37.816C58.5842 37.816 55.8893 37.816 53.1944 37.816C52.9796 37.1716 52.921 11.8241 53.1456 10.6232C55.8209 10.6232 58.5158 10.6232 61.2693 10.6232C61.3279 10.8868 61.3864 11.1504 61.4646 11.4824C70.0179 8.06499 80.0943 14.5971 79.8991 23.9315C79.9869 28.5597 80.026 33.1878 79.8698 37.816Z" fill="white"/>
<path d="M19.03 19.274C18.0243 20.8363 17.087 22.2228 15.9543 23.7655C19.3034 28.4522 22.6622 33.139 26.1382 37.9917C23.3164 38.0014 20.6606 37.9526 17.8583 38.0112C17.126 38.021 16.6769 37.8062 16.257 37.191C13.6012 33.4319 11.0821 29.6923 8.30914 26.0112C8.08457 30.0731 8.28962 33.8127 8.22127 37.8159C7.46944 38.0307 1.45479 38.0893 0.146412 37.894C-0.0293405 27.9347 0.11712 17.9461 0.0975919 7.98682C0.0975919 3.66135 3.80792 -0.0880343 8.19198 0.0681903C8.31891 7.3131 8.1041 14.558 8.27985 21.8029C8.52395 22.3302 9.06098 22.1837 9.45154 22.2228C13.074 22.6914 16.1399 21.3245 19.03 19.274Z" fill="white"/>
<path d="M111.886 0.0683594C114.61 0.0683594 117.237 0.0683594 119.922 0.0683594C120.078 9.93002 119.941 19.7819 119.971 29.6436C120.02 34.3401 116.426 37.8454 111.886 38.0114C111.886 25.3181 111.886 12.7225 111.886 0.0683594Z" fill="white"/>
<path d="M24.6249 5.48712C31.157 5.48712 37.6208 5.48712 44.1334 5.48712C44.8755 1.57174 49.8747 1.11283 51.1635 5.49688C51.9446 5.49688 52.7453 5.49688 53.5362 5.49688C54.9422 0.927312 60.2441 1.7182 60.5565 5.76051C60.3808 9.90047 55.0496 10.8671 53.5069 6.15108C52.7551 6.15108 51.9837 6.15108 51.144 6.15108C50.4117 10.0469 45.227 10.6035 44.0553 6.1706C37.611 6.1706 31.1473 6.1706 24.5761 6.1706C23.9609 10.5644 17.4581 10.1543 17.6534 5.59453C18.0342 1.65962 23.5215 1.06401 24.6249 5.48712Z" fill="#FF4D00"/>
<path d="M19.0301 19.2741C16.1302 21.3246 13.0741 22.6915 9.45159 22.2131C9.05127 22.174 8.52401 22.3205 8.27991 21.7932C10.8283 18.2294 13.3865 14.6753 15.8959 11.0821C16.1302 10.7501 16.3548 10.5158 16.8235 10.5255C19.655 10.6329 22.5257 10.3791 25.3377 10.6329C23.2873 13.5524 21.2368 16.4718 19.0301 19.2741Z" fill="#FF4D00"/>
<path d="M53.8681 43.8505C53.4482 43.4502 53.2432 42.9424 53.2432 42.3468C53.2432 41.7512 53.458 41.2435 53.8681 40.8432C54.2879 40.4331 54.7956 40.228 55.401 40.228C56.0064 40.228 56.5141 40.4331 56.934 40.8432C57.3538 41.2435 57.5686 41.7512 57.5686 42.3468C57.5686 42.9424 57.3538 43.4502 56.9437 43.8505C56.5239 44.2508 56.0162 44.4559 55.4108 44.4559C54.7956 44.4559 54.2879 44.2508 53.8681 43.8505ZM54.3758 43.3818C54.6492 43.6552 55.0007 43.8017 55.401 43.8017C55.8013 43.8017 56.1431 43.665 56.4165 43.3818C56.6899 43.0987 56.8363 42.7569 56.8363 42.3468C56.8363 41.9367 56.6996 41.595 56.4165 41.3118C56.1431 41.0287 55.8013 40.892 55.401 40.892C55.0007 40.892 54.6492 41.0287 54.3758 41.3118C54.1024 41.595 53.9657 41.9367 53.9657 42.3468C53.9657 42.7569 54.0926 43.1084 54.3758 43.3818Z" fill="#FF4D00"/>
<path d="M60.3514 44.3778V40.2964H61.9137C62.2554 40.2964 62.5679 40.4233 62.8413 40.6674C63.1147 40.9115 63.2416 41.2337 63.2416 41.6243C63.2416 42.0051 63.1049 42.3175 62.8413 42.5714C62.5776 42.8253 62.2652 42.9424 61.9137 42.9424H61.0837V44.368H60.3514V44.3778ZM61.0837 42.2882H61.8746C62.2066 42.2882 62.5093 42.0441 62.5093 41.6243C62.5093 41.1947 62.1968 40.9603 61.8746 40.9603H61.0837V42.2882Z" fill="#FF4D00"/>
<path d="M66.0146 44.3778V40.2964H68.6119V40.9603H66.747V41.9367H68.4947V42.6007H66.747V43.7236H68.6607V44.3875H66.0146V44.3778Z" fill="#FF4D00"/>
<path d="M71.5116 44.3777V40.1401L74.2943 42.8741V40.2964H75.0266V44.534L72.2439 41.8195V44.3875H71.5116V44.3777Z" fill="#FF4D00"/>
<path d="M82.545 44.3778V40.2964H85.0153V40.9603H83.2773V41.9856H84.8689V42.6495H83.2773V44.3875H82.545V44.3778Z" fill="#FF4D00"/>
<path d="M87.8567 44.3778V40.2964H88.589V44.3778H87.8567Z" fill="#FF4D00"/>
<path d="M91.6354 44.3777V40.1401L94.4181 42.8741V40.2964H95.1504V44.534L92.3677 41.8195V44.3875H91.6354V44.3777Z" fill="#FF4D00"/>
<path d="M97.8356 44.3777L99.8567 40.0913L101.868 44.3777H101.087L100.726 43.5868H98.9682L98.6069 44.3777H97.8356ZM99.2514 42.9522H100.462L99.8567 41.6243L99.2514 42.9522Z" fill="#FF4D00"/>
<path d="M104.553 44.3777V40.1401L107.336 42.8741V40.2964H108.068V44.534L105.286 41.8195V44.3875H104.553V44.3777Z" fill="#FF4D00"/>
<path d="M114.308 40.6479V41.429C113.946 41.0677 113.526 40.8822 113.038 40.8822C112.628 40.8822 112.286 41.0189 112.003 41.3021C111.73 41.5755 111.593 41.927 111.593 42.3371C111.593 42.7471 111.73 43.0987 112.003 43.372C112.277 43.6454 112.628 43.7821 113.038 43.7821C113.526 43.7821 113.956 43.5966 114.308 43.2353V44.0165C113.966 44.2996 113.536 44.4461 113.038 44.4461C112.433 44.4461 111.915 44.2508 111.496 43.8505C111.076 43.4502 110.871 42.9424 110.871 42.3371C110.871 41.7317 111.085 41.2337 111.496 40.8236C111.915 40.4233 112.433 40.2183 113.038 40.2183C113.536 40.228 113.956 40.3647 114.308 40.6479Z" fill="#FF4D00"/>
<path d="M117.246 44.3778V40.2964H119.844V40.9603H117.979V41.9367H119.727V42.6007H117.979V43.7236H119.893V44.3875H117.246V44.3778Z" fill="#FF4D00"/>
</g>
<defs>
<clipPath id="clip0_2536_9928">
<rect width="120" height="44.6216" fill="white"/>
</clipPath>
</defs>
</svg>
